<?xml version="1.0" encoding="UTF-8"?>
<svg width="80px" height="80px" viewBox="0 0 80 80" version="1.1" xmlns="http://www.w3.org/2000/svg" xmlns:xlink="http://www.w3.org/1999/xlink">
    <!-- Generator: Sketch 48.2 (47327) - http://www.bohemiancoding.com/sketch -->
    <title>home/ic_fujin_nor</title>
    <desc>Created with Sketch.</desc>
    <defs></defs>
    <g id="Symbols" stroke="none" stroke-width="1" fill="none" fill-rule="evenodd">
        <g id="home/ic_fujin_nor">
            <g id="ic_fujin_nor" transform="translate(2.000000, 2.000000)">
                <g id="Group">
                    <path d="M38,76 C17.0131795,76 0,58.9868205 0,38 C0,17.0131795 17.0131795,0 38,0 C58.9868205,0 76,17.0131795 76,38 C76,58.9868205 58.9868205,76 38,76 Z M38,72 C56.7776815,72 72,56.7776815 72,38 C72,19.2223185 56.7776815,4 38,4 C19.2223185,4 4,19.2223185 4,38 C4,56.7776815 19.2223185,72 38,72 Z" id="Combined-Shape" fill="#111111"></path>
                    <polygon id="Rectangle" fill="#4AE1E7" transform="translate(38.000000, 38.000000) rotate(-315.000000) translate(-38.000000, -38.000000) " points="38 10 52 38 38 66 24 38"></polygon>
                    <path d="M38,14.472136 L26.236068,38 L38,61.527864 L49.763932,38 L38,14.472136 Z" id="Rectangle-Copy" stroke="#111111" stroke-width="4" transform="translate(38.000000, 38.000000) rotate(-315.000000) translate(-38.000000, -38.000000) "></path>
                    <circle id="Oval-2" fill="#111111" cx="38" cy="38" r="4"></circle>
                </g>
                <path d="M36,1 L40,1 L40,8 L36,8 L36,1 Z M36,68 L40,68 L40,75 L36,75 L36,68 Z M1,36 L8,36 L8,40 L1,40 L1,36 Z M68,36 L75,36 L75,40 L68,40 L68,36 Z" id="Combined-Shape" fill="#111111"></path>
            </g>
        </g>
    </g>
</svg>