<?xml version="1.0" encoding="UTF-8"?>
<svg width="80px" height="80px" viewBox="0 0 80 80" version="1.1" xmlns="http://www.w3.org/2000/svg" xmlns:xlink="http://www.w3.org/1999/xlink">
    <!-- Generator: Sketch 48.2 (47327) - http://www.bohemiancoding.com/sketch -->
    <title>home/ic_saomiao_nor</title>
    <desc>Created with Sketch.</desc>
    <defs></defs>
    <g id="Symbols" stroke="none" stroke-width="1" fill="none" fill-rule="evenodd">
        <g id="home/ic_saomiao_nor">
            <g id="ic_saomiao_nor" transform="translate(2.000000, 2.000000)">
                <rect id="ic_jieshou_nor-copy" fill="#4AE1E7" x="10" y="10" width="56" height="56"></rect>
                <path d="M76,76 L55,76 L55,72 L72,72 L72,56 L76,56 L76,76 Z M76,0 L76,20 L72,20 L72,4 L55,4 L55,0 L76,0 Z M0,76 L0,56 L4,56 L4,72 L21,72 L21,76 L0,76 Z M0,0 L21,0 L21,4 L4,4 L4,20 L0,20 L0,0 Z M0,35 L76,35 L76,41 L0,41 L0,35 Z" id="Combined-Shape" fill="#111111"></path>
            </g>
        </g>
    </g>
</svg>